<svg width="205" height="52" viewBox="0 0 205 52" fill="none" xmlns="http://www.w3.org/2000/svg">
<path d="M49.7842 9.7539L45.2723 17.604C44.8852 18.2795 44.0195 18.5047 43.3371 18.1157C38.0613 15.0044 31.329 14.7587 25.6559 18.0441C19.9727 21.3397 16.8154 27.3475 16.8765 33.5089C16.8765 34.2867 16.2654 34.9315 15.4811 34.9418L6.58961 35.0032C1.53784 35.0339 -1.63988 29.548 0.886004 25.1471L11.3053 7.00074C13.7293 2.77376 18.2005 0.163886 23.0486 0.133182L44.1315 0.000129518C49.1324 -0.0305749 52.2795 5.40411 49.7842 9.7539Z" fill="#2962FF"/>
<path d="M51.0368 25.5357C55.9562 34.092 52.9313 45.0637 44.2638 49.8434C36.1362 54.3262 25.7984 51.6038 20.9096 43.682C19.7281 41.7681 18.9541 39.7212 18.5671 37.6333C18.4041 36.7633 19.0559 35.9548 19.942 35.9445L28.9761 35.8831C33.814 35.8524 38.2648 33.2528 40.6787 29.036L45.1194 21.3087C45.5573 20.5411 46.586 20.3671 47.2582 20.9505C48.7248 22.2196 50.0082 23.7446 51.0368 25.5255V25.5357Z" fill="#2962FF"/>
<path d="M62.6069 14.5234H76.0817V18.3206H66.9763V23.1104H74.5132V26.6517H66.9763V34.9828H62.6171V14.5234H62.6069Z" fill="#2962FF"/>
<path d="M78.2612 15.6699C78.2612 14.3291 79.3612 13.3057 80.5936 13.3057C81.826 13.3057 82.926 14.3291 82.926 15.6699C82.926 17.0107 81.8158 18.0137 80.5936 18.0137C79.3714 18.0137 78.2612 16.9902 78.2612 15.6699ZM78.4649 19.7945H82.7121V34.9932H78.4649V19.7945Z" fill="#2962FF"/>
<path d="M93.1515 23.0388C91.3793 23.0388 89.984 24.0623 89.984 26.3754V35.0033H85.7368V19.8046H89.984V22.9876H90.1571C90.4219 21.5548 91.8784 19.5078 94.9848 19.5078C97.9181 19.5078 100.189 21.4115 100.189 25.3519V35.0033H95.9422V26.3754C95.9422 24.0623 94.9237 23.0388 93.1515 23.0388Z" fill="#2962FF"/>
<path d="M102.491 30.961C102.491 27.604 105.221 26.8671 107.849 26.4884L110.405 26.1097C111.8 25.905 112.238 25.6696 112.238 24.8201V24.6155C112.238 23.0086 111.189 22.5685 109.886 22.5685C108.582 22.5685 107.299 23.0086 107.299 24.5847V24.8816H103.316V24.1754C103.316 21.197 105.292 19.498 110.008 19.498C114.723 19.498 116.404 21.1356 116.404 24.4415V34.9935H112.36V32.3018H112.187C111.892 33.1206 110.67 35.2801 107.36 35.2801C104.885 35.2801 102.501 34.0827 102.501 30.9508L102.491 30.961ZM112.238 29.7022V28.0032C112.004 28.3512 111.281 28.474 110.609 28.5866L108.48 28.9652C107.166 29.1699 106.738 29.8147 106.738 30.6028C106.738 31.5342 107.349 32.2404 108.806 32.2404C110.812 32.2404 112.238 30.8996 112.238 29.7022Z" fill="#2962FF"/>
<path d="M126.986 23.0388C125.214 23.0388 123.818 24.0623 123.818 26.3754V35.0033H119.571V19.8046H123.818V22.9876H123.992C124.256 21.5548 125.713 19.5078 128.819 19.5078C131.753 19.5078 134.024 21.4115 134.024 25.3519V35.0033H129.777V26.3754C129.777 24.0623 128.758 23.0388 126.986 23.0388Z" fill="#2962FF"/>
<path d="M136.326 27.4198C136.326 21.7497 140.227 19.498 143.945 19.498C146.593 19.498 150.32 20.5522 150.87 25.6696H147.031C146.654 23.8274 145.544 23.07 143.914 23.07C141.5 23.07 140.339 24.9123 140.339 27.43C140.339 29.9478 141.5 31.7286 143.914 31.7286C145.605 31.7286 146.654 30.8792 147.031 29.0676H150.87C150.402 34.185 146.623 35.2904 143.945 35.2904C140.217 35.2904 136.326 33.1001 136.326 27.43V27.4198Z" fill="#2962FF"/>
<path d="M153.06 15.6699C153.06 14.3291 154.17 13.3057 155.392 13.3057C156.615 13.3057 157.725 14.3291 157.725 15.6699C157.725 17.0107 156.625 18.0137 155.392 18.0137C154.16 18.0137 153.06 16.9902 153.06 15.6699ZM153.264 19.7945H157.511V34.9932H153.264V19.7945Z" fill="#2962FF"/>
<path d="M159.812 30.961C159.812 27.604 162.552 26.8671 165.17 26.4884L167.726 26.1097C169.122 25.905 169.56 25.6696 169.56 24.8201V24.6155C169.56 23.0086 168.51 22.5685 167.207 22.5685C165.903 22.5685 164.62 23.0086 164.62 24.5847V24.8816H160.637V24.1754C160.637 21.197 162.613 19.498 167.329 19.498C172.045 19.498 173.725 21.1356 173.725 24.4415V34.9935H169.682V32.3018H169.509C169.213 33.1206 167.991 35.2801 164.681 35.2801C162.206 35.2801 159.823 34.0827 159.823 30.9508L159.812 30.961ZM169.56 29.7022V28.0032C169.325 28.3512 168.602 28.474 167.93 28.5866L165.811 28.9652C164.498 29.1699 164.07 29.8147 164.07 30.6028C164.07 31.5342 164.681 32.2404 166.137 32.2404C168.144 32.2404 169.57 30.8996 169.57 29.7022H169.56Z" fill="#2962FF"/>
<path d="M176.302 32.7418C176.302 31.3397 177.463 30.1934 178.859 30.1934C180.254 30.1934 181.446 31.3294 181.446 32.7418C181.446 34.1542 180.285 35.2801 178.859 35.2801C177.433 35.2801 176.302 34.1645 176.302 32.7418Z" fill="#2962FF"/>
<path d="M183.32 30.961C183.32 27.604 186.06 26.8671 188.677 26.4884L191.234 26.1097C192.629 25.905 193.067 25.6696 193.067 24.8201V24.6155C193.067 23.0086 192.018 22.5685 190.714 22.5685C189.41 22.5685 188.127 23.0086 188.127 24.5847V24.8816H184.145V24.1754C184.145 21.197 186.121 19.498 190.836 19.498C195.552 19.498 197.233 21.1356 197.233 24.4415V34.9935H193.189V32.3018H193.016C192.721 33.1206 191.498 35.2801 188.188 35.2801C185.713 35.2801 183.33 34.0827 183.33 30.9508L183.32 30.961ZM193.067 29.7022V28.0032C192.833 28.3512 192.109 28.474 191.437 28.5866L189.319 28.9652C188.005 29.1699 187.577 29.8147 187.577 30.6028C187.577 31.5342 188.188 32.2404 189.645 32.2404C191.651 32.2404 193.077 30.8996 193.077 29.7022H193.067Z" fill="#2962FF"/>
<path d="M200.247 14.5234H204.494V34.9931H200.247V14.5234Z" fill="#2962FF"/>
</svg>
